<svg xmlns="http://www.w3.org/2000/svg" viewBox="0 0 327.33 67.03"><defs><style>.cls-1{fill:#ed6d1e;}.cls-2{fill:#6a6a6a;}.cls-3{fill:#6b6b6b;}</style></defs><g id="Capa_2" data-name="Capa 2"><g id="Capa_1-2" data-name="Capa 1"><path class="cls-1" d="M172.69,13.73l6.62,39.57h-7.15l-4.25-25-8.28,25H153l-8.47-25-4.22,25H133l6.82-39.57h7.34l9.21,27.62,9.19-27.62Z"/><path class="cls-2" d="M208.12,13.73,223.38,53.3h-7.73l-3.31-8.11h-16.2l-2.92,8.11h-7.95L197.6,21.46l3.87,10-2.57,6.43h10.68l-5.35-13.61-3.86-10,.19-.55Z"/><path class="cls-2" d="M245.78,46.51a12.43,12.43,0,0,0,3.08-.37,13,13,0,0,0,2.8-1.07,13.51,13.51,0,0,0,2.46-1.64,12.37,12.37,0,0,0,2-2.14l5.1,4.42a20.84,20.84,0,0,1-3,3.12,20.34,20.34,0,0,1-3.67,2.4,20,20,0,0,1-4.17,1.53,19,19,0,0,1-4.57.54,19.4,19.4,0,0,1-5.25-.71,19.61,19.61,0,0,1-4.73-2,19.16,19.16,0,0,1-4-3.09,19.43,19.43,0,0,1-3.09-4,19.64,19.64,0,0,1-2-4.73,20.08,20.08,0,0,1,0-10.51,20,20,0,0,1,5.1-8.73,19.16,19.16,0,0,1,4-3.09,19.61,19.61,0,0,1,4.73-2,19.4,19.4,0,0,1,5.25-.71,19,19,0,0,1,4.57.54,20,20,0,0,1,4.17,1.53,19.77,19.77,0,0,1,3.67,2.39,20.25,20.25,0,0,1,3,3.1l-5.1,4.44a13.21,13.21,0,0,0-2-2.15,13,13,0,0,0-2.46-1.64,13.45,13.45,0,0,0-2.8-1.05,12.43,12.43,0,0,0-3.08-.37,12.61,12.61,0,0,0-5,1,12.91,12.91,0,0,0-4.14,2.79,13,13,0,0,0-2.79,4.12,13,13,0,0,0,0,10.11,13.05,13.05,0,0,0,6.93,6.93A12.61,12.61,0,0,0,245.78,46.51Z"/><path class="cls-2" d="M291,13.73V21.1H274.65v8.83H291V37.1H274.65v8.83H291V53.3H267.28V13.73Z"/><path class="cls-1" d="M307.55,53.3H300V13.73h14.49a12.32,12.32,0,0,1,9,3.73,12.13,12.13,0,0,1,3.84,9V27a12.13,12.13,0,0,1-3.84,9,12.44,12.44,0,0,1-9,3.7h-6.92Zm6.17-21a5.38,5.38,0,0,0,5.5-5.49,5.76,5.76,0,0,0-1.58-4.06,5.19,5.19,0,0,0-3.92-1.65h-6.17V32.3Z"/><polygon class="cls-1" points="89.35 66.97 73.7 66.97 57.02 48.5 65.45 40.53 89.35 66.97"/><polygon class="cls-1" points="72.99 33.38 103.34 66.97 118.98 66.97 81.2 25.17 72.99 33.38"/><circle class="cls-3" cx="55.89" cy="61.85" r="5.12" transform="translate(-27.37 57.64) rotate(-45)"/><path class="cls-3" d="M1.36,58.28A5.24,5.24,0,0,0,5.26,67L47.6,67a9.72,9.72,0,0,1,0-10.23l-17.25,0A5.25,5.25,0,0,1,26.43,48L52.26,19.28a5.23,5.23,0,0,1,7.78,0l7.35,8.1L75.7,19,60,1.72a5.25,5.25,0,0,0-7.79,0Z"/></g></g></svg>