<svg id="Capa_1" enable-background="new 0 0 510 510" height="512" viewBox="0 0 510 510" width="512" xmlns="http://www.w3.org/2000/svg"><g><path d="m510 105v344.972c0 33.153-26.875 60.028-60.028 60.028h-196.972v-405z" fill="#e1ebf0"/><path d="m253 105v405h-192.972c-33.152 0-60.028-26.875-60.028-60.028v-344.972z" fill="#fff5f5"/><path d="m510 105h-257l-22.33-55.333 22.33-49.667h152z" fill="#2fc0f0"/><path d="m253 0v105h-253v-105h61l15 9.121 15-9.121h30l15 9.912 15-9.912h30l15 11.692 15-11.692z" fill="#9ee2f8"/><path d="m61 0h30v59.771h-30z" fill="#b40042"/><path d="m121 0h30v59.886h-30z" fill="#ffda44"/><path d="m181 0h30v59.943h-30z" fill="#00cc76"/><path d="m405 0h105v105h-105z" fill="#2682ff"/><path d="m450.77 263.9-69.52 76.47-36.75-28.59v153.22h-90l-29.473-150 29.473-150h85.73z" fill="#b40042"/><path d="m254.5 165v300h-90v-153.22l-36.75 28.59-69.52-76.47 110.54-98.9z" fill="#ff415b"/><path d="m395.106 465.459-21.212-21.212 31.82-31.821-31.82-31.82 21.212-21.212 53.034 53.032z" fill="#04303e"/><path d="m113.894 465.459-53.034-53.033 53.034-53.032 21.212 21.212-31.82 31.82 31.82 31.821z" fill="#07485e"/></g></svg>